PathFileType	4	(X/Y/Z)	RBDS028\RBDS028runT35.trc
DataRate	CameraRate	NumFrames	NumMarkers	Units	OrigDataRate	OrigDataStartFrame	OrigNumFrames
150.000000	150.000000	4	33	mm	150.000000	3375	4500
Frame#	Time	L.ASIS			L.Heel.Bottom			L.Heel.Lateral			L.Heel.Top			L.Iliac.Crest			L.MT1			L.MT5			L.PSIS			L.Shank.Bottom.Lateral			L.Shank.Bottom.Medial			L.Shank.Top.Lateral			L.Shank.Top.Medial			L.Thigh.Bottom.Lateral			L.Thigh.Bottom.Medial			L.Thigh.Top.Lateral			L.Thigh.Top.Medial			R.ASIS			R.ASY			R.Heel.Bottom			R.Heel.Lateral			R.Heel.Top			R.Iliac.Crest			R.MT1			R.MT5			R.PSIS			R.Shank.Bottom.Lateral			R.Shank.Bottom.Medial			R.Shank.Top.Lateral			R.Shank.Top.Medial			R.Thigh.Bottom.Lateral			R.Thigh.Bottom.Medial			R.Thigh.Top.Lateral			R.Thigh.Top.Medial			
		X1	Y1	Z1	X2	Y2	Z2	X3	Y3	Z3	X4	Y4	Z4	X5	Y5	Z5	X6	Y6	Z6	X7	Y7	Z7	X8	Y8	Z8	X9	Y9	Z9	X10	Y10	Z10	X11	Y11	Z11	X12	Y12	Z12	X13	Y13	Z13	X14	Y14	Z14	X15	Y15	Z15	X16	Y16	Z16	X17	Y17	Z17	X18	Y18	Z18	X19	Y19	Z19	X20	Y20	Z20	X21	Y21	Z21	X22	Y22	Z22	X23	Y23	Z23	X24	Y24	Z24	X25	Y25	Z25	X26	Y26	Z26	X27	Y27	Z27	X28	Y28	Z28	X29	Y29	Z29	X30	Y30	Z30	X31	Y31	Z31	X32	Y32	Z32	X33	Y33	Z33	

3376	22.5	1952.986946377363	842.9968647512203	890.564477222117	1895.251218587364	25.40459689103112	990.8120052834427	1924.750447794304	43.72110883085826	948.1349717604752	1907.873530724062	69.17558269455293	994.3963751210933	1879.642537339951	882.0247051052495	870.3624680658098	2117.080799891965	31.75832702389874	1032.410534719736	2078.36430340946	29.93296448859932	920.6568774449918	1809.521143716915	844.4090643755944	983.5711059712639	1990.695289510768	140.0912910124991	928.3994762837435	1950.890185617726	153.1880407002966	957.5997832096749	1995.354197242102	215.2321183223658	898.2621537201501	1960.135585909616	233.5254056873997	933.7230397159603	2028.396268386431	524.8899151394312	845.7761505507774	1973.377633621611	497.2070148866344	883.8756248922233	1974.446386271112	620.6465387071413	836.0428824183444	1921.044248821572	593.0657012978768	870.4269107707597	1984.590598648538	827.1939891662657	1126.634001358016	1547.851990358614	277.665651585732	1075.827002154274	1527.362459469962	461.1762045548781	1032.207430250618	1536.950447268054	436.4380689495261	1083.355640261609	1568.957265918255	442.8519840749001	1038.575126805338	1941.862440006418	885.730080151155	1153.784741497377	1499.008270153555	241.6204959342128	1027.131301913083	1489.323776984706	295.3649379559993	1128.337495911881	1826.039555971494	843.1621881591693	1074.514975939265	1641.781579496246	391.6128005734313	1113.525164886984	1646.59608971271	427.3730629947691	1071.638735945578	1718.128963194051	409.4686184982546	1135.335483624304	1722.317593774013	442.4010667315397	1093.057936898065	1936.421962570736	477.1291775738399	1173.679377349858	1883.287761208469	472.2652282864399	1126.057199776853	1921.322572927224	586.7650395228882	1178.778848532429	1868.216130343236	581.2348297157022	1135.901562677658	
3377	22.50666666666667	1950.515086724764	839.754286758867	889.7051840204916	1871.860870301912	25.87007061841318	991.3932366277185	1901.541860949901	44.76986982888879	949.0334843508978	1884.694162270529	69.60176280884581	995.7398821204014	1876.457163819591	876.3366890508235	871.0219167942515	2093.800964770434	31.45492174673072	1033.319884856282	2054.857397688339	30.74880803356633	921.5309577262606	1807.250186799017	840.5393573891328	984.9543356633612	1972.123219825016	139.1348275308575	929.5632063323809	1932.275192256455	154.3055242927937	957.8723392762388	1980.501905571472	213.7408327637553	898.5290517530841	1945.565766476944	234.0077147087642	933.3229858247729	2022.806615618846	520.8060823511599	845.1486860787785	1967.640123532893	493.8423501070112	883.6142960999706	1969.97664192617	617.2594635299499	835.71891812797	1916.508058401656	590.4031470192464	870.5923342099749	1983.155797717265	823.232386506632	1126.222352445641	1564.888850355126	277.708951153037	1077.218691090021	1543.40263192198	461.4807491300597	1034.70542756926	1553.494172367048	436.6082386616681	1085.82044241933	1585.097316145878	443.2391978273181	1040.541382405031	1940.809069867375	880.6810922775833	1154.273457066775	1515.900800168392	241.7163568555597	1029.186967155721	1506.977182080182	294.9640173764914	1130.56322265033	1824.058519707143	838.5558623430289	1075.514857555989	1658.572490522424	391.0362372052801	1115.418072818064	1663.848136515231	426.9567618868331	1073.635397263609	1735.179890468124	407.8720603350274	1137.169214865085	1739.777325646213	440.8871827819461	1094.973430207123	1947.988729083371	474.3375644328507	1175.531146305148	1894.827375191299	466.755937264761	1128.354295761158	1928.377820590179	583.241774346909	1180.029019875956	1875.312633523724	575.014135912782	1137.674785309219	
3378	22.51333333333334	1948.149518509639	837.0212963624944	889.1570843121384	1848.667816044901	26.60645189361893	991.6254037576896	1878.530110909694	45.78798338061017	949.4738944269678	1861.658131158909	70.28076359082355	996.3808615715636	1873.239217497692	871.2336249805749	871.6719676870562	2070.572163899025	31.66757258167378	1033.893892287361	2031.51543392661	31.48648014335801	922.1768319920119	1804.923802971939	837.4249789481793	986.1339249715724	1953.187379157883	138.6706840435352	930.1103010552113	1913.467671868953	155.7176368319751	957.6598942855846	1965.029001373463	212.6201594638907	898.383234497769	1930.492804806522	234.6711412806571	932.6071800982426	2016.645006971006	517.0753557681265	844.4493756027696	1961.090408126748	490.9095379353417	882.961219182179	1965.243178804996	614.3525869799107	835.3584376906989	1911.527323039347	588.3158042570894	870.509316398155	1981.321863142071	819.6894518828723	1126.049018147286	1582.847853244442	276.2966457580991	1078.466179751371	1558.883633636106	460.1623101436761	1037.742376168741	1569.817742957976	435.0792770170248	1088.560983380416	1600.816084148767	442.3543662288557	1042.938789801326	1938.816746848416	876.2684130221355	1154.767718734308	1533.965003967362	240.123471750136	1031.087871289887	1525.604184346355	292.5050346645845	1132.800183082754	1821.826012356315	834.7417775084568	1076.300004303578	1675.574412450374	389.6096085328139	1117.409526558899	1680.954543797185	425.7948130048703	1075.780766081012	1752.363079688879	405.9340099748452	1138.97178742515	1757.032722023747	439.1483492338221	1096.929394301591	1959.984451075759	472.5649531139612	1177.201429843389	1906.688123034137	462.2013571253794	1130.77871569527	1935.714493881639	580.4797890084991	1181.275388095321	1882.612443328542	569.4901758540045	1139.771745265788	
3379	22.52	1945.954211353225	834.8323336382307	888.923354685398	1825.639709677095	27.61540093417641	991.6112095288348	1855.666190738131	46.79354296325332	949.5542612632422	1838.775782603239	71.21641677176405	996.4645195826515	1870.055967523478	866.8874697581348	872.2545299535913	2047.411777309859	32.15460078867122	1034.170754199295	2008.287040549595	32.05963598756935	922.5992378593451	1802.608317487035	835.1279127703225	987.052994188169	1933.880226738933	138.6197139260797	930.1591243073768	1894.452698977234	157.3454541740849	957.1083476734517	1948.892153321637	211.8204507262346	897.9262759141271	1914.87044731844	235.4676353501244	931.6952747258869	2009.8536483145	513.7249456571994	843.6874636844263	1953.677332012823	488.4493522215033	881.9276781360936	1960.206235537759	611.9450953195961	834.9795876243821	1906.066896789064	586.830448624889	870.1976463797633	1979.141726345748	816.6728134634783	1126.142120220563	1601.589892390654	273.5064307748399	1079.56910503318	1573.736401815291	457.2323645821996	1041.283544789972	1585.835140406555	431.8796670202143	1091.547522181799	1616.028322147027	440.2021836282087	1045.747649530216	1935.85807494821	872.5884156658766	1155.278370650823	1553.052480024186	236.9110683550018	1032.787662278854	1545.063670319573	288.087010092075	1135.003110007115	1819.416903129952	831.7765424314014	1076.824833498795	1692.660548865513	387.3942947617524	1119.475258403608	1697.769276947471	423.9387743137881	1078.051775382384	1769.546480596661	403.7534048723957	1140.728866324924	1773.936269840965	437.2775321286207	1098.907848941998	1972.332328326499	471.9244242334666	1178.659059640392	1918.848607423513	458.7212673911637	1133.228945693338	1943.283867041073	578.5893646472151	1182.464386286037	1890.103185416357	564.7833305438716	1142.082340320456	
